<?xml version="1.0" encoding="UTF-8" standalone="no"?>
<svg
   xmlns:dc="http://purl.org/dc/elements/1.1/"
   xmlns:cc="http://creativecommons.org/ns#"
   xmlns:rdf="http://www.w3.org/1999/02/22-rdf-syntax-ns#"
   xmlns:svg="http://www.w3.org/2000/svg"
   xmlns="http://www.w3.org/2000/svg"
   xmlns:sodipodi="http://sodipodi.sourceforge.net/DTD/sodipodi-0.dtd"
   xmlns:inkscape="http://www.inkscape.org/namespaces/inkscape"
   aria-hidden="true"
   focusable="false"
   data-prefix="fas"
   data-icon="circle-check"
   class="svg-inline--fa fa-circle-check"
   role="img"
   viewBox="0 0 512 512"
   version="1.1"
   id="svg4"
   sodipodi:docname="circle-check-solid-white.svg"
   inkscape:version="0.92.5 (2060ec1f9f, 2020-04-08)">
  <metadata
     id="metadata10">
    <rdf:RDF>
      <cc:Work
         rdf:about="">
        <dc:format>image/svg+xml</dc:format>
        <dc:type
           rdf:resource="http://purl.org/dc/dcmitype/StillImage" />
        <dc:title></dc:title>
      </cc:Work>
    </rdf:RDF>
  </metadata>
  <defs
     id="defs8" />
  <sodipodi:namedview
     pagecolor="#ffffff"
     bordercolor="#666666"
     borderopacity="1"
     objecttolerance="10"
     gridtolerance="10"
     guidetolerance="10"
     inkscape:pageopacity="0"
     inkscape:pageshadow="2"
     inkscape:window-width="1011"
     inkscape:window-height="695"
     id="namedview6"
     showgrid="false"
     inkscape:zoom="0.4609375"
     inkscape:cx="256"
     inkscape:cy="256"
     inkscape:window-x="595"
     inkscape:window-y="177"
     inkscape:window-maximized="0"
     inkscape:current-layer="svg4" />
  <path
     fill="currentColor"
     d="M256 0C114.6 0 0 114.6 0 256s114.6 256 256 256s256-114.6 256-256S397.4 0 256 0zM371.8 211.8l-128 128C238.3 345.3 231.2 348 224 348s-14.34-2.719-19.81-8.188l-64-64c-10.91-10.94-10.91-28.69 0-39.63c10.94-10.94 28.69-10.94 39.63 0L224 280.4l108.2-108.2c10.94-10.94 28.69-10.94 39.63 0C382.7 183.1 382.7 200.9 371.8 211.8z"
     id="path2"
     style="fill:#ffffff" />
</svg>
