<?xml version="1.0" encoding="UTF-8" standalone="no"?>
<svg
   xmlns:dc="http://purl.org/dc/elements/1.1/"
   xmlns:cc="http://creativecommons.org/ns#"
   xmlns:rdf="http://www.w3.org/1999/02/22-rdf-syntax-ns#"
   xmlns:svg="http://www.w3.org/2000/svg"
   xmlns="http://www.w3.org/2000/svg"
   xmlns:sodipodi="http://sodipodi.sourceforge.net/DTD/sodipodi-0.dtd"
   xmlns:inkscape="http://www.inkscape.org/namespaces/inkscape"
   aria-hidden="true"
   focusable="false"
   data-prefix="fas"
   data-icon="circle-check"
   class="svg-inline--fa fa-circle-check"
   role="img"
   viewBox="0 0 512 512"
   version="1.1"
   id="svg4"
   sodipodi:docname="circle-check-solid-white-small.svg"
   inkscape:version="0.92.5 (2060ec1f9f, 2020-04-08)">
  <metadata
     id="metadata10">
    <rdf:RDF>
      <cc:Work
         rdf:about="">
        <dc:format>image/svg+xml</dc:format>
        <dc:type
           rdf:resource="http://purl.org/dc/dcmitype/StillImage" />
        <dc:title></dc:title>
      </cc:Work>
    </rdf:RDF>
  </metadata>
  <defs
     id="defs8" />
  <sodipodi:namedview
     pagecolor="#ffffff"
     bordercolor="#666666"
     borderopacity="1"
     objecttolerance="10"
     gridtolerance="10"
     guidetolerance="10"
     inkscape:pageopacity="0"
     inkscape:pageshadow="2"
     inkscape:window-width="1427"
     inkscape:window-height="695"
     id="namedview6"
     showgrid="false"
     inkscape:zoom="0.4609375"
     inkscape:cx="-174.64407"
     inkscape:cy="256"
     inkscape:window-x="179"
     inkscape:window-y="177"
     inkscape:window-maximized="0"
     inkscape:current-layer="svg4" />
  <path
     d="M 128,256 C 57.3,256 0,313.3 0,384 c 0,70.7 57.3,128 128,128 70.7,0 128,-57.3 128,-128 0,-70.7 -57.3,-128 -128,-128 z m 57.9,105.9 -64,64 c -2.75,2.75 -6.3,4.1 -9.9,4.1 -3.6,0 -7.17,-1.3595 -9.905,-4.094 l -32,-32 c -5.455,-5.47 -5.455,-14.345 0,-19.815 5.47,-5.47 14.345,-5.47 19.815,0 L 112,396.2 166.1,342.1 c 5.47,-5.47 14.345,-5.47 19.815,0 5.435,5.45 5.435,14.35 -0.015,19.8 z"
     id="path2"
     style="fill:#ffffff;stroke-width:0.5"
     inkscape:connector-curvature="0" />
</svg>
